<svg width="224" height="223" viewBox="0 0 224 223" fill="none" xmlns="http://www.w3.org/2000/svg">
<g filter="url(#filter0_df_63_2)">
<path d="M173.756 113.559C173.756 161.851 162.844 172.402 115.122 172.402C67.3993 172.402 50.8293 161.851 50.8293 113.559C50.8293 65.268 63.2846 50.3171 111.007 50.3171C162.955 50.3171 173.756 65.268 173.756 113.559Z" fill="#54CBE5"/>
</g>
<path d="M44 56C44 47.1634 51.1634 40 60 40H168C176.837 40 184 47.1634 184 56V165C184 173.837 176.837 181 168 181H60C51.1634 181 44 173.837 44 165V56Z" fill="#5DB8D2"/>
<path d="M57.7878 74.0398C57.7878 68.2188 62.5067 63.5 68.3276 63.5C74.1486 63.5 78.8674 68.2188 78.8674 74.0398V146.96C78.8674 152.781 74.1486 157.5 68.3276 157.5C62.5067 157.5 57.7878 152.781 57.7878 146.96V74.0398Z" fill="#E7F2F3"/>
<ellipse cx="86.3959" cy="131.957" rx="25.5966" ry="25.5435" fill="#E7F2F3"/>
<rect x="68.8295" y="121.739" width="18.0682" height="35.7609" fill="#E7F2F3"/>
<path d="M57.7878 74.0398C57.7878 68.2188 62.5067 63.5 68.3276 63.5C74.1486 63.5 78.8674 68.2188 78.8674 74.0398V146.96C78.8674 152.781 74.1486 157.5 68.3276 157.5C62.5067 157.5 57.7878 152.781 57.7878 146.96V74.0398Z" fill="#E7F2F3"/>
<ellipse cx="86.3959" cy="131.957" rx="25.5966" ry="25.5435" fill="#E7F2F3"/>
<rect x="68.8295" y="121.739" width="18.0682" height="35.7609" fill="#E7F2F3"/>
<path d="M170.212 91.4093C170.212 85.5884 165.493 80.8696 159.672 80.8696C153.851 80.8696 149.133 85.5884 149.133 91.4093V146.96C149.133 152.781 153.851 157.5 159.672 157.5C165.493 157.5 170.212 152.781 170.212 146.96V91.4093Z" fill="white"/>
<ellipse cx="25.5966" cy="25.5435" rx="25.5966" ry="25.5435" transform="matrix(-1 0 0 1 167.201 106.413)" fill="white"/>
<rect width="18.0682" height="35.7609" transform="matrix(-1 0 0 1 159.17 121.739)" fill="white"/>
<path d="M170.212 97.5397C170.212 91.7188 165.493 87 159.672 87C153.851 87 149.133 91.7188 149.133 97.5397V146.96C149.133 152.781 153.851 157.5 159.672 157.5C165.493 157.5 170.212 152.781 170.212 146.96V97.5397Z" fill="white"/>
<ellipse cx="25.5966" cy="25.5435" rx="25.5966" ry="25.5435" transform="matrix(-1 0 0 1 167.201 106.413)" fill="white"/>
<rect width="18.0682" height="35.7609" transform="matrix(-1 0 0 1 159.17 121.739)" fill="white"/>
<defs>
<filter id="filter0_df_63_2" x="0.829285" y="0.317078" width="222.927" height="222.085" filterUnits="userSpaceOnUse" color-interpolation-filters="sRGB">
<feFlood flood-opacity="0" result="BackgroundImageFix"/>
<feColorMatrix in="SourceAlpha" type="matrix" values="0 0 0 0 0 0 0 0 0 0 0 0 0 0 0 0 0 0 127 0" result="hardAlpha"/>
<feOffset dy="4"/>
<feGaussianBlur stdDeviation="2"/>
<feComposite in2="hardAlpha" operator="out"/>
<feColorMatrix type="matrix" values="0 0 0 0 0 0 0 0 0 0 0 0 0 0 0 0 0 0 0.25 0"/>
<feBlend mode="normal" in2="BackgroundImageFix" result="effect1_dropShadow_63_2"/>
<feBlend mode="normal" in="SourceGraphic" in2="effect1_dropShadow_63_2" result="shape"/>
<feGaussianBlur stdDeviation="25" result="effect2_foregroundBlur_63_2"/>
</filter>
</defs>
</svg>
